<svg width="1927" height="258" viewBox="0 0 1927 258" fill="none" xmlns="http://www.w3.org/2000/svg">
<path d="M90.9245 257C93.0113 257 94.6713 256.384 95.9045 255.151C97.1376 253.919 97.7542 252.259 97.7542 250.173V230.262C117.864 228.176 133.847 222.013 145.704 211.773C157.562 201.533 163.49 188.164 163.49 171.667C163.49 160.479 161.119 151.281 156.376 144.076C151.633 136.87 144.282 130.896 134.322 126.156C124.362 121.415 110.939 117.148 94.0547 113.356C81.913 110.321 72.5696 107.477 66.0245 104.822C59.4794 102.167 54.7365 99.1333 51.7959 95.72C48.8554 92.3067 47.3851 88.04 47.3851 82.92C47.3851 75.3348 50.3731 69.5511 56.3491 65.5689C62.3251 61.5867 70.5302 59.5956 80.9645 59.5956C90.4502 59.5956 98.3708 61.6341 104.726 65.7111C111.082 69.7881 114.828 74.8607 115.967 80.9289C117.484 84.3422 120.235 86.0489 124.219 86.0489H151.254C152.961 86.0489 154.384 85.48 155.522 84.3422C156.66 83.2044 157.23 81.7822 157.23 80.0756C156.85 73.0593 154.336 65.8533 149.688 58.4578C145.04 51.0622 138.306 44.5674 129.484 38.9733C120.662 33.3793 110.086 29.7289 97.7542 28.0222V7.82667C97.7542 5.74074 97.1376 4.08148 95.9045 2.84889C94.6713 1.6163 93.0113 1 90.9245 1H73.2811C71.3839 1 69.7714 1.6163 68.4434 2.84889C67.1154 4.08148 66.4514 5.74074 66.4514 7.82667V27.4533C47.8594 29.7289 33.204 35.9867 22.4851 46.2267C11.7663 56.4667 6.40685 68.9822 6.40685 83.7733C6.40685 100.081 11.624 112.597 22.0583 121.32C32.4925 130.043 48.9028 137.059 71.2891 142.369C84.7588 145.972 94.9559 149.053 101.88 151.613C108.805 154.173 113.975 157.16 117.39 160.573C120.804 163.987 122.512 168.253 122.512 173.373C122.512 181.148 119.144 187.264 112.41 191.72C105.675 196.176 95.7622 198.404 82.6719 198.404C70.9096 198.404 61.6611 196.224 54.9262 191.862C48.1914 187.501 43.7805 182.096 41.6937 175.649C40.5554 173.753 39.3697 172.378 38.1365 171.524C36.9034 170.671 35.1485 170.244 32.872 170.244H7.26056C5.55314 170.244 4.08285 170.861 2.84971 172.093C1.61657 173.326 1 174.701 1 176.218C1.37943 184.941 4.08285 193.142 9.11028 200.822C14.1377 208.502 21.5365 214.997 31.3068 220.307C41.0771 225.616 52.7919 228.935 66.4514 230.262V250.173C66.4514 252.259 67.1154 253.919 68.4434 255.151C69.7714 256.384 71.3839 257 73.2811 257H90.9245Z" fill="#74FFF1" stroke="#74FFF1" stroke-width="0.409091"/>
<path d="M306.827 231.4C332.439 231.4 352.311 224.858 366.445 211.773C380.579 198.689 387.646 178.873 387.646 152.324V36.5555C387.646 34.4696 387.029 32.7629 385.796 31.4355C384.563 30.1081 382.903 29.4444 380.816 29.4444H354.635C352.549 29.4444 350.841 30.1081 349.513 31.4355C348.185 32.7629 347.521 34.4696 347.521 36.5555V152.324C347.521 167.305 343.964 178.588 336.85 186.173C329.735 193.758 319.633 197.551 306.543 197.551C293.453 197.551 283.35 193.758 276.236 186.173C269.122 178.588 265.565 167.305 265.565 152.324V36.5555C265.565 34.4696 264.901 32.7629 263.573 31.4355C262.245 30.1081 260.537 29.4444 258.45 29.4444H232.27C230.183 29.4444 228.523 30.1081 227.29 31.4355C226.057 32.7629 225.44 34.4696 225.44 36.5555V152.324C225.44 178.873 232.554 198.689 246.783 211.773C261.011 224.858 281.026 231.4 306.827 231.4Z" fill="#74FFF1" stroke="#74FFF1" stroke-width="0.409091"/>
<path d="M544.358 29.4444L548.604 29.5078C569.547 30.1411 586.154 35.5244 598.426 45.6578C611.516 56.4666 618.062 72.2059 618.062 92.8755C618.062 113.356 611.516 128.858 598.426 139.382C585.336 149.907 567.313 155.169 544.358 155.169H502.526V221.729L502.446 222.929C502.234 224.461 501.596 225.721 500.534 226.707C499.206 227.939 497.498 228.556 495.411 228.556H468.093L466.989 228.476C465.562 228.264 464.317 227.626 463.255 226.564C461.927 225.237 461.263 223.625 461.263 221.729V36.5555L461.337 35.3495C461.534 33.8021 462.126 32.4975 463.113 31.4355C464.346 30.1081 466.006 29.4444 468.093 29.4444H544.358ZM542.935 61.3022H501.957V123.311H542.935C553.938 123.311 562.333 120.704 568.119 115.489C573.906 110.274 576.799 102.641 576.799 92.5911C576.799 82.7303 574.001 75.0503 568.404 69.5511C562.807 64.0518 554.318 61.3022 542.935 61.3022Z" fill="#74FFF1" stroke="#74FFF1" stroke-width="0.409091"/>
<path d="M814.614 228.556C816.701 228.556 818.408 227.939 819.736 226.707C821.064 225.474 821.728 223.815 821.728 221.729V202.387C821.728 200.301 821.064 198.641 819.736 197.409C818.408 196.176 816.701 195.56 814.614 195.56H718.998V144.076H806.076C808.163 144.076 809.871 143.459 811.199 142.227C812.527 140.994 813.191 139.335 813.191 137.249V119.329C813.191 117.243 812.527 115.536 811.199 114.209C809.871 112.881 808.163 112.218 806.076 112.218H718.998V62.44H812.337C814.424 62.44 816.131 61.8237 817.459 60.5911C818.787 59.3585 819.451 57.6992 819.451 55.6133V36.5555C819.451 34.4696 818.787 32.7629 817.459 31.4355C816.131 30.1081 814.424 29.4444 812.337 29.4444H686.841C684.754 29.4444 683.094 30.1081 681.861 31.4355C680.628 32.7629 680.011 34.4696 680.011 36.5555V221.729C680.011 223.625 680.675 225.237 682.003 226.564C683.331 227.892 684.944 228.556 686.841 228.556H814.614Z" fill="#74FFF1" stroke="#74FFF1" stroke-width="0.409091"/>
<path d="M968.765 29.4444L973.081 29.5078C994.362 30.1411 1011.18 35.5244 1023.54 45.6578C1036.73 56.4666 1043.32 71.8266 1043.32 91.7377C1043.32 105.581 1040 117.196 1033.36 126.582C1026.72 135.969 1017.43 142.748 1005.47 146.92L1046.74 219.453L1047.21 220.559C1047.46 221.276 1047.59 221.95 1047.59 222.582C1047.59 224.289 1046.97 225.711 1045.74 226.849C1044.51 227.987 1043.13 228.556 1041.61 228.556H1015.43L1013.69 228.47C1011.48 228.243 1009.69 227.56 1008.32 226.422C1006.61 225 1005.09 223.151 1003.77 220.876L967.342 153.462H928.356V221.729L928.276 222.833C928.063 224.259 927.426 225.503 926.364 226.564C925.036 227.892 923.328 228.556 921.241 228.556H895.061L893.957 228.476C892.53 228.264 891.286 227.626 890.223 226.564C888.895 225.237 888.231 223.625 888.231 221.729V36.5555L888.305 35.3495C888.502 33.8021 889.094 32.4975 890.081 31.4355C891.314 30.1081 892.974 29.4444 895.061 29.4444H968.765ZM967.911 61.3022H928.356V121.036H967.911C979.294 121.036 987.831 118.523 993.522 113.498C999.214 108.473 1002.06 101.124 1002.06 91.4533C1002.06 81.7822 999.214 74.3392 993.522 69.1244C987.831 63.9096 979.294 61.3022 967.911 61.3022Z" fill="#74FFF1" stroke="#74FFF1" stroke-width="0.409091"/>
<path d="M1160.48 228.556C1165.6 228.556 1168.92 226.185 1170.44 221.444L1202.31 127.009L1234.18 221.444C1234.75 223.341 1235.89 225 1237.6 226.422C1239.31 227.844 1241.49 228.556 1244.14 228.556H1263.49C1266.34 228.556 1268.66 227.797 1270.47 226.28C1272.27 224.763 1273.36 222.677 1273.74 220.022L1307.32 37.6933C1307.51 37.1244 1307.6 36.3659 1307.6 35.4178C1307.6 33.7111 1307.03 32.2889 1305.89 31.1511C1304.76 30.0133 1303.43 29.4444 1301.91 29.4444H1276.3C1271.56 29.4444 1268.9 31.3407 1268.33 35.1333L1245 163.133L1219.39 80.6444C1218.82 78.7481 1217.77 77.0889 1216.25 75.6666C1214.74 74.2444 1212.75 73.5333 1210.28 73.5333H1194.63C1190.26 73.5333 1187.13 75.9037 1185.24 80.6444L1159.91 163.133L1136.29 35.1333C1135.91 33.0474 1135.15 31.5778 1134.01 30.7244C1132.88 29.8711 1131.07 29.4444 1128.61 29.4444H1103C1101.29 29.4444 1099.87 30.0133 1098.73 31.1511C1097.59 32.2889 1097.02 33.7111 1097.02 35.4178L1097.3 37.6933L1130.88 220.022C1132.21 225.711 1135.63 228.556 1141.13 228.556H1160.48Z" fill="white" stroke="white" stroke-width="0.409091"/>
<path d="M1455.78 29.4444L1457.37 29.5322C1461.45 30.0004 1464.34 32.3415 1466.02 36.5555L1534.32 220.022L1534.89 222.582L1534.81 223.572C1534.62 224.846 1534.02 225.939 1533.04 226.849C1531.81 227.987 1530.43 228.556 1528.91 228.556H1503.59L1502.15 228.471C1498.93 228.077 1496.66 226.304 1495.33 223.151L1482.24 188.733H1398.01L1384.92 223.151L1384.29 224.418C1382.69 227.176 1380.15 228.556 1376.67 228.556H1351.34L1350.11 228.449C1348.94 228.236 1347.92 227.702 1347.07 226.849C1345.93 225.711 1345.36 224.289 1345.36 222.582L1345.93 220.022L1414.23 36.5555L1414.92 35.0631C1416.9 31.3173 1420.09 29.4444 1424.47 29.4444H1455.78ZM1440.13 68.1289L1407.97 155.738H1472.28L1440.13 68.1289Z" fill="white" stroke="white" stroke-width="0.409091"/>
<path d="M1722.62 228.556C1724.71 228.556 1726.41 227.892 1727.74 226.564C1729.07 225.237 1729.73 223.625 1729.73 221.729V201.249C1729.73 199.353 1729.07 197.741 1727.74 196.413C1726.41 195.086 1724.71 194.422 1722.62 194.422H1632.41V36.2711C1632.41 34.1852 1631.79 32.5259 1630.56 31.2933C1629.33 30.0607 1627.67 29.4444 1625.58 29.4444H1598.83C1596.93 29.4444 1595.32 30.0607 1593.99 31.2933C1592.66 32.5259 1592 34.1852 1592 36.2711V221.729C1592 223.625 1592.66 225.237 1593.99 226.564C1595.32 227.892 1596.93 228.556 1598.83 228.556H1722.62Z" fill="white" stroke="white" stroke-width="0.409091"/>
<path d="M1918.89 228.556C1920.97 228.556 1922.68 227.892 1924.01 226.564C1925.34 225.237 1926 223.625 1926 221.729V201.249C1926 199.353 1925.34 197.741 1924.01 196.413C1922.68 195.086 1920.97 194.422 1918.89 194.422H1828.68V36.2711C1828.68 34.1852 1828.06 32.5259 1826.83 31.2933C1825.59 30.0607 1823.93 29.4444 1821.85 29.4444H1795.1C1793.2 29.4444 1791.59 30.0607 1790.26 31.2933C1788.93 32.5259 1788.27 34.1852 1788.27 36.2711V221.729C1788.27 223.625 1788.93 225.237 1790.26 226.564C1791.59 227.892 1793.2 228.556 1795.1 228.556H1918.89Z" fill="white" stroke="white" stroke-width="0.409091"/>
</svg>
